<?xml version="1.0" encoding="UTF-8"?>
<svg width="400" height="400" viewBox="0 0 400 400" xmlns="http://www.w3.org/2000/svg">
  <rect width="100%" height="100%" fill="#fff"/>
  <!-- Corner finder squares -->
  <rect x="20" y="20" width="90" height="90" fill="#000"/>
  <rect x="35" y="35" width="60" height="60" fill="#fff"/>
  <rect x="50" y="50" width="30" height="30" fill="#000"/>

  <rect x="290" y="20" width="90" height="90" fill="#000"/>
  <rect x="305" y="35" width="60" height="60" fill="#fff"/>
  <rect x="320" y="50" width="30" height="30" fill="#000"/>

  <rect x="20" y="290" width="90" height="90" fill="#000"/>
  <rect x="35" y="305" width="60" height="60" fill="#fff"/>
  <rect x="50" y="320" width="30" height="30" fill="#000"/>

  <!-- Some pseudo-random modules to resemble a QR pattern -->
  <g fill="#000">
    <rect x="140" y="20" width="16" height="16"/>
    <rect x="166" y="20" width="8" height="16"/>
    <rect x="196" y="20" width="12" height="12"/>

    <rect x="120" y="60" width="12" height="12"/>
    <rect x="140" y="60" width="16" height="16"/>
    <rect x="168" y="60" width="12" height="12"/>

    <rect x="220" y="120" width="14" height="14"/>
    <rect x="240" y="100" width="12" height="12"/>
    <rect x="200" y="140" width="10" height="10"/>

    <rect x="80" y="180" width="20" height="20"/>
    <rect x="110" y="200" width="12" height="12"/>
    <rect x="140" y="190" width="18" height="18"/>

    <rect x="260" y="220" width="16" height="16"/>
    <rect x="280" y="240" width="12" height="12"/>
    <rect x="300" y="260" width="8" height="8"/>
  </g>

  <!-- QRIS label -->
  <rect x="0" y="360" width="400" height="40" fill="#3F4F44"/>
  <text x="200" y="387" font-family="Arial, Helvetica, sans-serif" font-size="18" fill="#fff" text-anchor="middle">QRIS Placeholder - Scan untuk bayar</text>
</svg>
